<?xml version="1.0" encoding="UTF-8"?><svg id="a" xmlns="http://www.w3.org/2000/svg" viewBox="0 0 190.1 53.1"><defs><style>.b{fill:#fff;}.c{fill:#ff7a00;}.d{fill:#0091d0;}.e{fill:#2c6db3;}</style></defs><circle class="c" cx="26.55" cy="26.55" r="26.55" transform="translate(-.91 52.16) rotate(-88)"/><circle class="e" cx="72.09" cy="26.55" r="26.55" transform="translate(43.12 97.7) rotate(-88.06)"/><circle class="c" cx="117.95" cy="26.55" r="26.55" transform="translate(87.22 143.48) rotate(-87.96)"/><circle class="e" cx="163.55" cy="26.55" r="26.55" transform="translate(130.07 188.82) rotate(-87.56)"/><g><path class="b" d="M9.04,32.19c-2.65-2.28-3.52-4.57-3.57-4.7h0l-.18-.47,.2-.46c.05-.1,1.14-2.59,3.88-5.1h0c2.73-2.51,7.16-5.01,13.6-5h0c4.94,.02,9.9,2.48,13.7,4.87h0c3.79,2.4,7.49,5.77,7.49,5.77l-1.1,.9s-2.65,2.16-6.44,4.32h0c-3.8,2.15-8.75,4.35-13.65,4.36h-.04c-6.84,0-11.26-2.22-13.9-4.5h0Zm-.68-4.48c.45,.7,1.18,1.66,2.29,2.62h0c2.23,1.91,5.98,3.89,12.33,3.9h0c4.01,.01,8.54-1.86,12.09-3.85h0c2.26-1.26,4.12-2.54,5.25-3.37h0c-.17-.14-.35-.29-.55-.45h0c-1.08-.86-2.61-2-4.41-3.14h0c-3.6-2.29-8.29-4.51-12.38-4.49h0c-5.71,0-9.43,2.12-11.83,4.26h0c-1.73,1.55-2.73,3.13-3.16,3.9h0c.09,.17,.21,.38,.37,.63h0Zm-.61-.16h0Z"/><path class="b" d="M13.9,26.43c0-5.05,4.09-9.14,9.14-9.14h0c5.05,0,9.14,4.09,9.14,9.14h0c0,5.05-4.09,9.14-9.14,9.14h0c-5.05,0-9.14-4.09-9.14-9.14h0Zm3.9-5.24c-1.34,1.34-2.17,3.19-2.17,5.24h0c0,2.05,.83,3.9,2.17,5.24h0c1.34,1.34,3.19,2.17,5.24,2.17h0c2.05,0,3.9-.83,5.24-2.17h0c1.34-1.34,2.17-3.19,2.17-5.24h0c0-2.05-.83-3.9-2.17-5.24h0c-1.34-1.34-3.19-2.17-5.24-2.17h0c-2.05,0-3.9,.83-5.24,2.17h0Z"/><path class="b" d="M27.22,26.4c0,2.28-1.85,4.14-4.14,4.14s-4.14-1.85-4.14-4.14,1.85-4.14,4.14-4.14,4.14,1.85,4.14,4.14Z"/></g><g><path class="b" d="M74.7,11.98h-2.92v1.55h3.26v1.21h-5.06v-6.51h4.89v1.21h-3.1v1.35h2.92v1.2Z"/><path class="b" d="M64.7,19.01c.54-.07,1.25-.12,1.99-.12,1.25,0,2.07,.19,2.69,.57,.68,.41,1.11,1.08,1.11,2.02,0,1.03-.46,1.74-1.08,2.18-.69,.47-1.75,.69-3.03,.69-.77,0-1.32-.04-1.68-.08v-5.27Zm1.48,4.38c.13,.02,.34,.02,.52,.02,1.35,0,2.24-.6,2.24-1.88,0-1.12-.8-1.71-2.08-1.71-.32,0-.54,.02-.67,.05v3.51Z"/><path class="b" d="M75.4,19c.39-.06,1.17-.11,1.91-.11,.9,0,1.46,.07,1.94,.3,.46,.2,.78,.57,.78,1.06s-.34,.91-1.08,1.14v.02c.75,.16,1.3,.63,1.3,1.32,0,.49-.27,.88-.68,1.15-.48,.31-1.27,.49-2.58,.49-.73,0-1.27-.04-1.6-.08v-5.28Zm1.47,2.06h.49c.79,0,1.2-.26,1.2-.66s-.38-.62-1.05-.62c-.33,0-.52,.02-.63,.03v1.25Zm0,2.38c.15,.02,.32,.02,.57,.02,.67,0,1.26-.22,1.26-.78,0-.53-.59-.75-1.33-.75h-.51v1.51Z"/><path class="b" d="M66.21,32.32c-.22,.09-.75,.2-1.42,.2-1.93,0-2.92-.99-2.92-2.29,0-1.56,1.36-2.42,3.05-2.42,.65,0,1.15,.1,1.37,.2l-.26,.81c-.25-.09-.6-.17-1.06-.17-.99,0-1.77,.5-1.77,1.51,0,.92,.66,1.49,1.78,1.49,.39,0,.8-.06,1.06-.15l.18,.81Z"/><path class="b" d="M71.65,27.87v1.76h2.08v-1.76h1.26v4.57h-1.26v-1.91h-2.08v1.91h-1.26v-4.57h1.26Z"/><path class="b" d="M79.44,27.87h1.26v3.7h2.22v.87h-3.48v-4.57Z"/><path class="b" d="M60.69,38.77h-1.74v.9h1.94v.7h-3.01v-3.77h2.91v.7h-1.84v.78h1.74v.69Z"/><path class="b" d="M64.47,36.59h2.88v.7h-1.82v.86h1.7v.69h-1.7v1.52h-1.07v-3.77Z"/><path class="b" d="M70.69,39.91l2.25-2.59v-.02h-2.05v-.71h3.43v.49l-2.2,2.55v.02h2.24v.71h-3.67v-.46Z"/><path class="b" d="M78.51,37.31h-1.28v-.72h3.63v.72h-1.29v3.06h-1.07v-3.06Z"/><path class="b" d="M84.27,36.64c.28-.04,.84-.08,1.38-.08,.65,0,1.05,.05,1.4,.21,.33,.14,.56,.4,.56,.74s-.25,.64-.78,.8h0c.54,.12,.94,.45,.94,.94,0,.35-.2,.62-.49,.81-.34,.22-.92,.34-1.86,.34-.53,0-.92-.03-1.16-.06v-3.71Zm1.06,1.44h.35c.57,0,.86-.18,.86-.46s-.27-.44-.76-.44c-.24,0-.37,.01-.46,.02v.88Zm0,1.67c.11,.01,.23,.01,.41,.01,.48,0,.91-.15,.91-.55,0-.38-.43-.53-.96-.53h-.36v1.06Z"/></g><path class="b" d="M133.69,36.43c-.61-.26-2.34-1.4-5.93-1.93-2.83-.42-5.22-.19-6.72,.05-.54,.08-3.93-.42-4.44-.66-1.41-.66-3.69-1.58-6.52-2-3.59-.53-5.48,.07-6.13,.15-.64,.08-.46,1.41-.42,1.87,.08,.83,.42,1.16,.42,1.16,0,0-.31,3.19,2.22,5.79,1.61,1.65,4.77,2.1,7,1.22,2.99-1.17,4.07-5.52,4.21-5.61,.1-.07,2.31,.26,2.4,.35,.12,.13,.35,4.67,3.03,6.68,2,1.5,5.16,1.99,7.04,.86,2.96-1.78,3.26-4.97,3.26-4.97,0,0,.39-.22,.63-1,.13-.43,.55-1.67-.05-1.94Zm-18.33,2.01c-.99,2.22-2.46,3.65-5.54,3.2-2.07-.31-3.97-1.4-4.55-4.56-.42-2.32-.09-5.04,5.43-4.02,5.26,.97,5.38,3.75,4.66,5.38Zm16.1,2.51c-1.16,2.9-3.21,3.41-5.28,3.1-3.08-.46-4.24-2.28-4.78-4.72-.39-1.79,.25-4.46,5.55-3.87,5.56,.61,5.37,3.35,4.52,5.49Z"/><path class="b" d="M181.93,23.75c0,.68-7.83,1.23-17.49,1.23s-17.49-.55-17.49-1.23,7.83-1.23,17.49-1.23,17.49,.55,17.49,1.23Z"/><path class="b" d="M181.88,22.62c-2.59-3.57-9.45-6.12-17.49-6.12s-14.84,2.53-17.46,6.08c1.61-.68,8.8-1.2,17.43-1.2s16.1,.54,17.52,1.24Z"/><path class="d" d="M158.69,19.05c-.89,.33-3.6,1.48-3.6,1.48-2.41,.17-4.44,.42-4.44,.42,0,0,1-.86,4.77-2.07,4.55-1.46,8.78-1.43,8.78-1.43,0,0-2.93,.64-5.52,1.6Z"/><path class="b" d="M177.4,36.38c0,.53-6.08,.96-13.59,.96s-13.59-.43-13.59-.96,6.08-.96,13.59-.96,13.59,.43,13.59,.96Z"/><path class="b" d="M177.37,35.5c-2.02-2.77-7.34-4.76-13.59-4.76s-11.53,1.97-13.57,4.73c1.25-.53,6.84-.93,13.54-.93s12.51,.42,13.61,.96Z"/><path class="d" d="M159.35,32.72c-.69,.26-2.79,1.15-2.79,1.15-1.87,.13-3.45,.33-3.45,.33,0,0,.78-.67,3.71-1.61,3.53-1.13,6.82-1.11,6.82-1.11,0,0-2.27,.49-4.29,1.24Z"/><path class="b" d="M135.91,11c-.88,.04-3.5-.16-8.34,.97-3.82,.89-6.85,2.14-8.72,3-.67,.31-5.25,1.38-5.98,1.4-2.05,.06-5.31,.28-9.13,1.17-4.84,1.13-7.11,2.47-7.92,2.82-.8,.35-.14,1.4,.07,1.76,.37,.67,.92,.79,.92,.79,0,0,.64,2.84,4.79,3.92,2.63,.69,6.89-.33,9.5-2.05,3.5-2.31,3.48-6.46,3.63-6.6,.11-.1,3.09-.8,3.23-.75,.2,.06,1.99,3.8,6.13,4.32,3.1,.39,7.36-.59,9.43-2.37,3.26-2.81,2.6-5.64,2.6-5.64,0,0,.44-.36,.48-1.12,.02-.42,.17-1.66-.71-1.61Zm-23.17,9.77c-.55,2.31-2,4.17-6.16,5.14-2.79,.65-5.62,.56-7.41-1.86-1.31-1.78-1.77-4.23,5.74-5.79,7.16-1.49,8.23,.81,7.82,2.5Zm21.75-4.96c-.55,2.97-3.06,4.3-5.85,4.95-4.15,.97-6.26-.06-7.77-1.89-1.1-1.34-1.13-3.88,5.94-5.72,7.42-1.92,8.08,.48,7.67,2.66Z"/></svg>